Coordinates
version=1
nRows=33
nColumns=21
inDegrees=yes

Units are S.I. units (second, meters, Newtons, ...)
If the header above contains a line with 'inDegrees', this indicates whether rotational values are in degrees (yes) or radians (no).

endheader
time	sternoclavicular_r2	sternoclavicular_r3	unrotscap_r3	unrotscap_r2	acromioclavicular_r2	acromioclavicular_r3	acromioclavicular_r1	unrothum_r1	unrothum_r3	unrothum_r2	elv_angle	shoulder_elev	shoulder1_r2	shoulder_rot	elbow_flexion	pro_sup	deviation	flexion	wrist_hand_r1	wrist_hand_r3
      1.00502513	     -2.80852349	      1.18955799	     -1.18955799	      2.80852349	     -0.56866888	      4.59578183	      2.06577230	     -2.06577230	     -4.59578183	      0.56866888	     69.93578924	     11.60544295	    -69.93578924	      8.90034679	     42.85767111	     81.32794473	      0.00000000	     -0.00000000	     -0.00000000	      0.00000000
      1.02512563	     -2.80852349	      1.18955799	     -1.18955799	      2.80852349	     -0.56866888	      4.59578183	      2.06577230	     -2.06577230	     -4.59578183	      0.56866888	     69.93578924	     11.60544295	    -69.93578924	      8.90034679	     43.02557331	     81.34137030	      0.00000000	     -0.00000000	     -0.00000000	      0.00000000
      1.04522613	     -2.80852349	      1.18955799	     -1.18955799	      2.80852349	     -0.56866888	      4.59578183	      2.06577230	     -2.06577230	     -4.59578183	      0.56866888	     69.93578924	     11.60544295	    -69.93578924	      8.90034679	     43.19862726	     81.35140622	      0.00000000	     -0.00000000	     -0.00000000	      0.00000000
      1.06532663	     -2.80852349	      1.18955799	     -1.18955799	      2.80852349	     -0.56866888	      4.59578183	      2.06577230	     -2.06577230	     -4.59578183	      0.56866888	     69.93578924	     11.60544295	    -69.93578924	      8.90034679	     43.36599594	     81.25359890	      0.00000000	     -0.00000000	     -0.00000000	      0.00000000
      1.08542714	     -2.80852349	      1.18955799	     -1.18955799	      2.80852349	     -0.56866888	      4.59578183	      2.06577230	     -2.06577230	     -4.59578183	      0.56866888	     69.93578924	     11.60544295	    -69.93578924	      8.90034679	     43.55406319	     81.27484120	      0.00000000	     -0.00000000	     -0.00000000	      0.00000000
      1.10552764	     -2.80852349	      1.18955799	     -1.18955799	      2.80852349	     -0.56866888	      4.59578183	      2.06577230	     -2.06577230	     -4.59578183	      0.56866888	     69.93578924	     11.60544295	    -69.93578924	      8.90034679	     43.74403038	     81.29176097	      0.00000000	     -0.00000000	     -0.00000000	      0.00000000
      1.12562814	     -2.80852349	      1.18955799	     -1.18955799	      2.80852349	     -0.56866888	      4.59578183	      2.06577230	     -2.06577230	     -4.59578183	      0.56866888	     69.93578924	     11.60544295	    -69.93578924	      8.90034679	     43.93927050	     81.30463127	      0.00000000	     -0.00000000	     -0.00000000	      0.00000000
      1.14572864	     -2.80852349	      1.18955799	     -1.18955799	      2.80852349	     -0.56866888	      4.59578183	      2.06577230	     -2.06577230	     -4.59578183	      0.56866888	     69.93578924	     11.60544295	    -69.93578924	      8.90034679	     44.13985766	     81.31406008	      0.00000000	     -0.00000000	     -0.00000000	      0.00000000
      1.16582915	     -2.80852349	      1.18955799	     -1.18955799	      2.80852349	     -0.56866888	      4.59578183	      2.06577230	     -2.06577230	     -4.59578183	      0.56866888	     69.93578924	     11.60544295	    -69.93578924	      8.90034679	     44.34585991	     81.32056827	      0.00000000	     -0.00000000	     -0.00000000	      0.00000000
      1.18592965	     -2.80852349	      1.18955799	     -1.18955799	      2.80852349	     -0.56866888	      4.59578183	      2.06577230	     -2.06577230	     -4.59578183	      0.56866888	     69.93578924	     11.60544295	    -69.93578924	      8.90034679	     44.55733915	     81.32460226	      0.00000000	     -0.00000000	     -0.00000000	      0.00000000
      1.20603015	     -2.80852349	      1.18955799	     -1.18955799	      2.80852349	     -0.56866888	      4.59578183	      2.06577230	     -2.06577230	     -4.59578183	      0.56866888	     69.93578924	     11.60544295	    -69.93578924	      8.90034679	     44.77435122	     81.32654437	      0.00000000	     -0.00000000	     -0.00000000	      0.00000000
      1.22613065	     -2.80852349	      1.18955799	     -1.18955799	      2.80852349	     -0.56866888	      4.59578183	      2.06577230	     -2.06577230	     -4.59578183	      0.56866888	     69.93578924	     11.60544295	    -69.93578924	      8.90034679	     44.99694613	     81.32672152	      0.00000000	     -0.00000000	     -0.00000000	      0.00000000
      1.24623116	     -2.80852349	      1.18955799	     -1.18955799	      2.80852349	     -0.56866888	      4.59578183	      2.06577230	     -2.06577230	     -4.59578183	      0.56866888	     69.93578924	     11.60544295	    -69.93578924	      8.90034679	     45.22516827	     81.32541276	      0.00000000	     -0.00000000	     -0.00000000	      0.00000000
      1.26633166	     -2.80852349	      1.18955799	     -1.18955799	      2.80852349	     -0.56866888	      4.59578183	      2.06577230	     -2.06577230	     -4.59578183	      0.56866888	     69.93578924	     11.60544295	    -69.93578924	      8.90034679	     45.45905665	     81.32285583	      0.00000000	     -0.00000000	     -0.00000000	      0.00000000
      1.28643216	     -2.80852349	      1.18955799	     -1.18955799	      2.80852349	     -0.56866888	      4.59578183	      2.06577230	     -2.06577230	     -4.59578183	      0.56866888	     69.93578924	     11.60544295	    -69.93578924	      8.90034679	     45.69864514	     81.31925291	      0.00000000	     -0.00000000	     -0.00000000	      0.00000000
      1.30653266	     -2.80852349	      1.18955799	     -1.18955799	      2.80852349	     -0.56866888	      4.59578183	      2.06577230	     -2.06577230	     -4.59578183	      0.56866888	     69.93578924	     11.60544295	    -69.93578924	      8.90034679	     45.94396266	     81.31477565	      0.00000000	     -0.00000000	     -0.00000000	      0.00000000
      1.32663317	     -2.80852349	      1.18955799	     -1.18955799	      2.80852349	     -0.56866888	      4.59578183	      2.06577230	     -2.06577230	     -4.59578183	      0.56866888	     69.93578924	     11.60544295	    -69.93578924	      8.90034679	     46.19503331	     81.30956958	      0.00000000	     -0.00000000	     -0.00000000	      0.00000000
      1.34673367	     -2.80852349	      1.18955799	     -1.18955799	      2.80852349	     -0.56866888	      4.59578183	      2.06577230	     -2.06577230	     -4.59578183	      0.56866888	     69.93578924	     11.60544295	    -69.93578924	      8.90034679	     46.45187658	     81.30375789	      0.00000000	     -0.00000000	     -0.00000000	      0.00000000
      1.36683417	     -2.80852349	      1.18955799	     -1.18955799	      2.80852349	     -0.56866888	      4.59578183	      2.06577230	     -2.06577230	     -4.59578183	      0.56866888	     69.93578924	     11.60544295	    -69.93578924	      8.90034679	     46.71450736	     81.29744474	      0.00000000	     -0.00000000	     -0.00000000	      0.00000000
      1.38693467	     -2.80852349	      1.18955799	     -1.18955799	      2.80852349	     -0.56866888	      4.59578183	      2.06577230	     -2.06577230	     -4.59578183	      0.56866888	     69.93578924	     11.60544295	    -69.93578924	      8.90034679	     46.98293610	     81.29071816	      0.00000000	     -0.00000000	     -0.00000000	      0.00000000
      1.40703518	     -2.80852349	      1.18955799	     -1.18955799	      2.80852349	     -0.56866888	      4.59578183	      2.06577230	     -2.06577230	     -4.59578183	      0.56866888	     69.93578924	     11.60544295	    -69.93578924	      8.90034679	     47.25716874	     81.28365247	      0.00000000	     -0.00000000	     -0.00000000	      0.00000000
      1.42713568	     -2.80852349	      1.18955799	     -1.18955799	      2.80852349	     -0.56866888	      4.59578183	      2.06577230	     -2.06577230	     -4.59578183	      0.56866888	     69.93578924	     11.60544295	    -69.93578924	      8.90034679	     47.53720681	     81.27631037	      0.00000000	     -0.00000000	     -0.00000000	      0.00000000
      1.44723618	     -2.80852349	      1.18955799	     -1.18955799	      2.80852349	     -0.56866888	      4.59578183	      2.06577230	     -2.06577230	     -4.59578183	      0.56866888	     69.93578924	     11.60544295	    -69.93578924	      8.90034679	     47.82304735	     81.26874481	      0.00000000	     -0.00000000	     -0.00000000	      0.00000000
      1.46733668	     -2.80852349	      1.18955799	     -1.18955799	      2.80852349	     -0.56866888	      4.59578183	      2.06577230	     -2.06577230	     -4.59578183	      0.56866888	     69.93578924	     11.60544295	    -69.93578924	      8.90034679	     48.11468286	     81.26100043	      0.00000000	     -0.00000000	     -0.00000000	      0.00000000
      1.48743719	     -2.80852349	      1.18955799	     -1.18955799	      2.80852349	     -0.56866888	      4.59578183	      2.06577230	     -2.06577230	     -4.59578183	      0.56866888	     69.93578924	     11.60544295	    -69.93578924	      8.90034679	     48.41210127	     81.25311497	      0.00000000	     -0.00000000	     -0.00000000	      0.00000000
      1.50753769	     -2.80852349	      1.18955799	     -1.18955799	      2.80852349	     -0.56866888	      4.59578183	      2.06577230	     -2.06577230	     -4.59578183	      0.56866888	     69.93578924	     11.60544295	    -69.93578924	      8.90034679	     48.71528583	     81.24512028	      0.00000000	     -0.00000000	     -0.00000000	      0.00000000
      1.52763819	     -2.80852349	      1.18955799	     -1.18955799	      2.80852349	     -0.56866888	      4.59578183	      2.06577230	     -2.06577230	     -4.59578183	      0.56866888	     69.93578924	     11.60544295	    -69.93578924	      8.90034679	     49.02421501	     81.23704334	      0.00000000	     -0.00000000	     -0.00000000	      0.00000000
      1.54773869	     -2.80852349	      1.18955799	     -1.18955799	      2.80852349	     -0.56866888	      4.59578183	      2.06577230	     -2.06577230	     -4.59578183	      0.56866888	     69.93578924	     11.60544295	    -69.93578924	      8.90034679	     49.33886237	     81.22890697	      0.00000000	     -0.00000000	     -0.00000000	      0.00000000
      1.56783920	     -2.80852349	      1.18955799	     -1.18955799	      2.80852349	     -0.56866888	      4.59578183	      2.06577230	     -2.06577230	     -4.59578183	      0.56866888	     69.93578924	     11.60544295	    -69.93578924	      8.90034679	     49.65919649	     81.22073057	      0.00000000	     -0.00000000	     -0.00000000	      0.00000000
      1.58793970	     -2.80852349	      1.18955799	     -1.18955799	      2.80852349	     -0.56866888	      4.59578183	      2.06577230	     -2.06577230	     -4.59578183	      0.56866888	     69.93578924	     11.60544295	    -69.93578924	      8.90034679	     49.98518076	     81.21253063	      0.00000000	     -0.00000000	     -0.00000000	      0.00000000
      1.60804020	     -2.80852349	      1.18955799	     -1.18955799	      2.80852349	     -0.56866888	      4.59578183	      2.06577230	     -2.06577230	     -4.59578183	      0.56866888	     69.93578924	     11.60544295	    -69.93578924	      8.90034679	     50.31677330	     81.20432122	      0.00000000	     -0.00000000	     -0.00000000	      0.00000000
      1.62814070	     -2.80852349	      1.18955799	     -1.18955799	      2.80852349	     -0.56866888	      4.59578183	      2.06577230	     -2.06577230	     -4.59578183	      0.56866888	     69.93578924	     11.60544295	    -69.93578924	      8.90034679	     50.65392678	     81.19611436	      0.00000000	     -0.00000000	     -0.00000000	      0.00000000
      1.64824121	     -2.80852349	      1.18955799	     -1.18955799	      2.80852349	     -0.56866888	      4.59578183	      2.06577230	     -2.06577230	     -4.59578183	      0.56866888	     69.93578924	     11.60544295	    -69.93578924	      8.90034679	     50.99658829	     81.18792036	      0.00000000	     -0.00000000	     -0.00000000	      0.00000000
